inDegrees=no
num_controls=7
num_derivatives=13
num_iterations=88
num_multipliers=7
num_parameters=0
num_slacks=7
num_states=26
objective=0.484552
objective_accelerations=0.003472
objective_balance=0.002680
objective_effort=0.010039
objective_height=0.446250
objective_ligament=0.022111
solver_duration=1063.840878
status=Solve_Succeeded
success=true
DataType=double
version=3
OpenSimVersion=4.5
endheader
time	/jointset/ground_pelvis/pelvis_tilt/value	/jointset/ground_pelvis/pelvis_tx/value	/jointset/ground_pelvis/pelvis_ty/value	/jointset/hip_l/hip_flexion_l/value	/jointset/hip_l/hip_adduction_l/value	/jointset/hip_l/hip_rotation_l/value	/jointset/back/lumbar_extension/value	/jointset/patellofemoral_l/patellar_flexion_l/value	/jointset/knee_l/knee_flexion_l/value	/jointset/knee_l/knee_adduction_l/value	/jointset/knee_l/knee_rotation_l/value	/jointset/ankle_l/ankle_angle_l/value	/jointset/subtalar_l/subtalar_angle_l/value	/jointset/ground_pelvis/pelvis_tilt/speed	/jointset/ground_pelvis/pelvis_tx/speed	/jointset/ground_pelvis/pelvis_ty/speed	/jointset/hip_l/hip_flexion_l/speed	/jointset/hip_l/hip_adduction_l/speed	/jointset/hip_l/hip_rotation_l/speed	/jointset/back/lumbar_extension/speed	/jointset/patellofemoral_l/patellar_flexion_l/speed	/jointset/knee_l/knee_flexion_l/speed	/jointset/knee_l/knee_adduction_l/speed	/jointset/knee_l/knee_rotation_l/speed	/jointset/ankle_l/ankle_angle_l/speed	/jointset/subtalar_l/subtalar_angle_l/speed	/forceset/tau_hip_flexion_l	/forceset/tau_hip_adduction_l	/forceset/tau_hip_rotation_l	/forceset/tau_knee_flexion_l	/forceset/tau_ankle_angle_l	/forceset/tau_subtalar_angle_l	/forceset/tau_lumbar_extension	lambda_cid13_p0	lambda_cid13_p1	lambda_cid13_p2	lambda_cid13_p3	lambda_cid13_p4	lambda_cid13_p5	lambda_cid14_p0	/jointset/ground_pelvis/pelvis_tilt/accel	/jointset/ground_pelvis/pelvis_tx/accel	/jointset/ground_pelvis/pelvis_ty/accel	/jointset/hip_l/hip_flexion_l/accel	/jointset/hip_l/hip_adduction_l/accel	/jointset/hip_l/hip_rotation_l/accel	/jointset/back/lumbar_extension/accel	/jointset/patellofemoral_l/patellar_flexion_l/accel	/jointset/knee_l/knee_flexion_l/accel	/jointset/knee_l/knee_adduction_l/accel	/jointset/knee_l/knee_rotation_l/accel	/jointset/ankle_l/ankle_angle_l/accel	/jointset/subtalar_l/subtalar_angle_l/accel	gamma_cid13_p0	gamma_cid13_p1	gamma_cid13_p2	gamma_cid13_p3	gamma_cid13_p4	gamma_cid13_p5	gamma_cid14_p0
1.5	0.1011756698169479	0.1039086947713915	0.9460012612856443	0.02207659586860367	-0.2306193890837132	-0.3762094072249816	-0.4406951138636809	0.1017266883689964	0.1017266883689883	-0.09193014173987939	-0.174504012066468	0.02421276144037923	0.07938854970277014	0.1015956823694396	-0.005930663386614341	0.01248995005799882	-0.1974709424627021	0.01323808143382455	-0.04365349597225168	0.1140906024451252	-0.1561569919765736	-0.1561569919765803	-0.03677660182741788	-0.0002856745135374366	-0.07028557450331861	-0.0138390828897766	0.009186843327910936	0.07830251119538051	-0.00837307313872713	-0.09145038106374463	0.07167211494276747	-0.06629763408651478	0.1044493281178504	-27.15115848929608	29.07800927538529	0.01456320852692171	4.43007485173417	-702.8886266480345	-16.06617890482514	-19.54707101032419	-0.093331032126225	-0.067050233305224	-0.02152147459524284	0.2530347648202518	-0.04401920263171936	0.05486812540970282	0.1280379821693669	0.1296884615288457	0.1296884615288492	-0.04804362863273023	0.0003716714198848739	-0.04790300631884977	-0.06679288528216136	7.168305156223024e-11	1.021004537947687e-08	-3.073444404353082e-09	1.192793574741314e-09	7.686224939795258e-09	5.573100712302814e-09	1.047329705302413e-09
1.51	0.1021870336075063	0.1038460661336774	0.9461250980765352	0.02011436636507837	-0.2304891808771871	-0.376643285872074	-0.4395480712261456	0.1001715068698794	0.1001715068699038	-0.09230028541800403	-0.1745068931285383	0.02350751956627229	0.07924685622834651	0.1006730589843397	-0.006592807446107204	0.01227712668090332	-0.1949661867722485	0.01280381813337841	-0.04311883646929777	0.1153032654786322	-0.1548677177472559	-0.1548677177472631	-0.03724620567049319	-0.0002892322099551801	-0.07075423303585525	-0.01449572204925987	0.0108454416126844	0.07730503792593278	-0.008457705177740799	-0.0928947739514405	0.07395779043117248	-0.0666096001348335	0.1032227916189356	-26.44136571809949	29.12507545509383	-0.03389991562626955	4.186179343063879	-702.8619631925184	-16.23211544627165	-19.50011476463931	-0.0923307817310428	-0.06545774261226923	-0.02120337890455944	0.2505114991225691	-0.04309233417936165	0.05327522852513189	0.1156815266408501	0.1302851955569737	0.130285195556981	-0.04552813461574771	-0.0005245138346864318	-0.04506200861665191	-0.06451720959476603	1.14646162547323e-10	1.046038702363034e-08	-3.230634238583271e-09	1.209696352300907e-09	7.913931665593757e-09	5.800558771131818e-09	1.090200961359687e-09
1.52	0.1031890506061881	0.1037768838053003	0.9462467985117282	0.01817744752404031	-0.2303633077917687	-0.3770717158509731	-0.4383893417457399	0.09862956577148317	0.09862956577147684	-0.09267494700902455	-0.17450977077228	0.02279784816045696	0.07909871280666471	0.09972632399808549	-0.007241401519232059	0.01206267891841531	-0.1924088099631996	0.0123710572157966	-0.04256376233486611	0.1164279710201259	-0.1535089118409852	-0.1535089118409928	-0.03768018441239695	-0.0002849908528640318	-0.07117148084421931	-0.01512907234127519	0.01250403989751795	0.07630756465652067	-0.008542337217109806	-0.09433916683907043	0.07624346591960968	-0.06692156618309561	0.1019962551200274	-25.73129391869362	29.17202215770193	-0.08226331835539542	3.942992474365731	-702.8325345936919	-16.39590825781214	-19.45334848778514	-0.09815335235691236	-0.06434023603181176	-0.02184635167373995	0.2635589885393732	-0.04371872605885982	0.05895105170521397	0.1104464837667661	0.1435947969194958	0.1435947969194959	-0.0409186083984317	0.001931482121583316	-0.03762086148455294	-0.06213511178866481	1.514500351094704e-10	1.068941958316446e-08	-3.378001022594196e-09	1.219462662765248e-09	8.103936904074168e-09	6.003820809595105e-09	1.12860062319869e-09
1.53	0.1041814877807653	0.1037012791746358	0.9463663475629067	0.01626635167809315	-0.2302417510714506	-0.3774945022586947	-0.4372198417823825	0.09710154167182168	0.09710154167184182	-0.09305377054644001	-0.1745125714878926	0.02208424832831399	0.0789443510421966	0.09875750854748507	-0.007877729610570719	0.01184690159817261	-0.189801594408321	0.01194071141006528	-0.041990511435284	0.1174539821717009	-0.1520846285937419	-0.1520846285937466	-0.03807837478362153	-0.0002742432525528998	-0.07154058647482869	-0.01573949202689676	0.01419511107910584	0.07528409060058243	-0.008632909878051874	-0.0958523412418037	0.07860508038943365	-0.06724183186821488	0.1007369817906957	-24.99767467065577	29.22007449382059	-0.132658095772188	3.69467312850872	-702.8035079895159	-16.56448449553234	-19.40679389202716	-0.09678628087750636	-0.06300960110818304	-0.02147621323135877	0.2606173651766816	-0.04263002857129912	0.05696414780800035	0.09597250907171055	0.1435367766460567	0.1435367766465819	-0.03834556396877581	0.0007818138121670152	-0.03537035789050819	-0.05992842192428897	1.817097168472383e-10	1.089581124029051e-08	-3.514930815747152e-09	1.221646476940885e-09	8.253884312279111e-09	6.181374576419818e-09	1.16224921618078e-09
1.54	0.1051641286729213	0.1036193651619734	0.946483732282677	0.01438159089292662	-0.2301244853133591	-0.3779114657496684	-0.4360406228918706	0.09558809874227962	0.09558809874226637	-0.09343639125002956	-0.1745152376445094	0.02136719445105195	0.07878399847587647	0.09776706751826023	-0.008503277918829266	0.0116298126367644	-0.187141797804851	0.01151286477468754	-0.04139917898676788	0.1183717564520362	-0.150592677825723	-0.1505926778257248	-0.0384396176542126	-0.0002580790591972845	-0.07186228986709692	-0.01632723271153038	0.01588618226076928	0.07426061654469061	-0.008723482539348435	-0.09736551564445857	0.08096669485929807	-0.0675620975532626	0.09947770846137258	-24.26371139022742	29.26800454173756	-0.1829624941364272	3.44642197495082	-702.7711032056619	-16.73070815925003	-19.36047926043426	-0.1024784680816571	-0.06218427941594903	-0.02210867990683756	0.2740751982577028	-0.04321889198815366	0.06256736149196267	0.08879910951888012	0.1571283010746427	0.157128301074642	-0.03352910827174505	0.003014800730391697	-0.02814041381650504	-0.05759931159115615	2.05168039980834e-10	1.108000663745971e-08	-3.657088717741136e-09	1.2405275385128e-09	8.409498398663628e-09	6.361765630690672e-09	1.193864461960204e-09
1.55	0.1061367550662044	0.1035312467985358	0.9465989397855465	0.01252369011774147	-0.2300114834673335	-0.3783224193032084	-0.4348527856197034	0.09408990078158223	0.09408990078157181	-0.09382244064423402	-0.174517706279687	0.02064715064596996	0.07861787986865418	0.09675402080554062	-0.009118930247983567	0.011411414226764	-0.1844283012083786	0.0110879214414695	-0.04078750121732778	0.119176120679254	-0.1490353616498894	-0.1490353616498953	-0.03876397086400345	-0.0002339432799111527	-0.07213893812239494	-0.01689288437543411	0.01760095904637725	0.07321957430719994	-0.008819570036597458	-0.09893894267262371	0.08339642782080736	-0.0678925830577576	0.09819481536592534	-23.50898402804138	29.31813077215106	-0.2352085778353147	3.193291052533314	-702.7428457660095	-16.89841366726223	-19.31442657961079	-0.1013466036045451	-0.06103577195048573	-0.02174474575936808	0.2714951030160924	-0.04207071074777928	0.06107348736718542	0.07331848414390425	0.1567659273411502	0.1567659273406043	-0.03094342030259101	0.002367672643595302	-0.02629688308853289	-0.05550875891972612	2.207900151574489e-10	1.123862808293949e-08	-3.805270310356301e-09	1.278646732954339e-09	8.571641483820265e-09	6.545425733540774e-09	1.223136938136557e-09
1.56	0.1070991252261888	0.1034370158993497	0.9467119554394741	0.01069322595104551	-0.2299027187860166	-0.3787271349785059	-0.4336574920243056	0.09260762251296184	0.09260762251294874	-0.09421154456909347	-0.1745198826158438	0.01992456638798852	0.07844621261176614	0.09571582086333318	-0.009725785068537669	0.01119144284833185	-0.1816544761049379	0.01066543183787497	-0.04015160334000151	0.1198630210993048	-0.1474087394139159	-0.1474087394139259	-0.03905052379257889	-0.0001996192559934885	-0.07237038044577911	-0.01743696264452258	0.01931573583209075	0.07217853206977871	-0.008915657533992613	-0.1005123697006993	0.08582616078237142	-0.06822306856215336	0.09691192227049117	-22.75385040033023	29.36813136150812	-0.2873723633420607	2.939631842318606	-702.7106138128202	-17.0635592562909	-19.26866398040585	-0.1075091139791193	-0.06042477769603576	-0.02242327359318629	0.286140899651387	-0.0427281460634593	0.06741138306913966	0.06530634808552685	0.1709895131026475	0.170989513102647	-0.02596905202867343	0.005052449656614816	-0.01909922743387528	-0.0532846326281694	2.515612120461554e-10	1.13592037003279e-08	-3.943921764757116e-09	1.29188883068568e-09	8.719678946581599e-09	6.709716905974479e-09	1.251112250745717e-09
1.57	0.1080509931730971	0.1033367580081222	0.9468227644898243	0.008890792726523628	-0.229798160967274	-0.3791253760782934	-0.4324559415893564	0.09114194385302996	0.09114194385296499	-0.09460331864576185	-0.1745216659810354	0.01919988613322306	0.07826921546532128	0.09465371858503287	-0.01032463075705847	0.01097012146792592	-0.1788215673125874	0.01024689859683076	-0.03949286826084704	0.1204252934272867	-0.1457151271709524	-0.1457151271709546	-0.03929713543141963	-0.0001557137117564128	-0.07255825634754259	-0.0179585479460762	0.021048621790182	0.07111998019591807	-0.009017212883183089	-0.1021399305121088	0.08831541681587664	-0.06855924827550668	0.09560959299892224	-21.98043396367358	29.41863396933816	-0.341021388752886	2.681678736039045	-702.6827363949042	-17.23304444342062	-19.22321283425595	-0.1061685528623987	-0.05943984894613099	-0.02202164829804208	0.2834559079055774	-0.04130210511973578	0.06566779321423266	0.04842180578067064	0.1703266322916492	0.1703266322929048	-0.02293235365349936	0.004259572163684541	-0.01751943943137994	-0.05100898755188323	3.012689360749762e-10	1.143222203260209e-08	-4.070660546389988e-09	1.274034557529272e-09	8.850084381348805e-09	6.849796915387688e-09	1.277466108895884e-09
1.58	0.1089921185435761	0.1032305465831063	0.9469313533107638	0.007117006597691604	-0.2296977657193693	-0.3795169171827048	-0.4312494216050085	0.08969355722596475	0.08969355722596199	-0.09499734386555847	-0.174522970297764	0.01847354958585566	0.07808711976413352	0.09356730558246601	-0.01091649182620672	0.01074739696620077	-0.1759250569650858	0.009832917675975036	-0.03881160426667339	0.1208569309803199	-0.1439503328320482	-0.1439503328320426	-0.03950075242391696	-0.0001038095532578383	-0.0727016389646596	-0.01845667359294007	0.02278150774840476	0.07006142832215727	-0.009118768232042055	-0.1037674913234384	0.09080467284944853	-0.0688954279887299	0.09430726372736779	-21.206549571969	29.46901075891263	-0.3946002232185727	2.422621944108368	-702.6502720324904	-17.39975065618283	-19.17810273782887	-0.112371258832357	-0.05902785382161547	-0.02270389785702856	0.2988612106816459	-0.0418176820257706	0.07191716607292677	0.03917939309579616	0.1852259322908115	0.1852259322908118	-0.01737012276000277	0.006652172508846997	-0.01020057050467925	-0.04859270169026573	3.377600535495401e-10	1.144014176265388e-08	-4.191655232777975e-09	1.259395264165193e-09	9.009927561462406e-09	6.984379284491334e-09	1.289451827830282e-09
